
<svg xmlns="http://www.w3.org/2000/svg" width="800" height="800" viewBox="0 0 800 800" fill="none">
  <rect width="800" height="800" fill="#0A0A1E"/>
  <path d="M289.667 552.731C241.467 552.731 203.333 514.598 203.333 466.398C203.333 418.198 241.467 380.065 289.667 380.065C337.867 380.065 376 418.198 376 466.398C376 514.598 337.867 552.731 289.667 552.731Z" fill="url(#paint0_linear_1_2)"/>
  <rect x="264" y="300" width="50" height="50" fill="#DBE54E"/>
  <path d="M436.471 405.062V591.995H468.445V405.062H436.471ZM493.641 458.622V410.661H462.062V458.622H493.641ZM496.641 591.995L553.48 405.062H520.919L480.851 533.397L477.655 547.834H476.675L473.479 532.41L433.215 405.062H399.671L456.51 591.995H496.641ZM612.027 594.591C632.665 594.591 649.045 587.409 661.126 573.045V591.995H691.128V474.756C691.128 461.961 688.872 451.142 684.359 442.299C679.847 433.457 673.56 427.01 665.5 422.958C657.44 418.906 648.066 416.88 637.377 416.88C621.977 416.88 609.308 420.932 599.371 429.035C589.434 437.139 583.025 448.51 580.146 463.148L609.561 469.734C611.372 461.751 615.003 455.582 620.454 451.226C625.905 446.87 632.952 444.692 641.595 444.692C650.799 444.692 657.93 447.688 662.987 453.679C668.044 459.671 670.572 467.939 670.572 478.484V486.132H629.642C607.067 486.132 590.097 490.745 578.733 499.969C567.369 509.194 561.687 521.555 561.687 537.053C561.687 550.828 566.942 562.204 577.453 571.18C587.964 580.157 599.887 584.645 613.223 584.645C623.441 584.645 632.168 582.731 639.404 578.904C646.639 575.077 652.569 569.708 657.195 562.799H658.454C657.784 565.887 657.308 569.373 657.027 573.258C656.745 577.142 656.604 581.027 656.604 584.911V591.995H684.675V589.399C683.337 589.399 682.104 589.329 680.977 589.188C679.85 589.048 678.882 588.767 678.073 588.347C677.264 587.927 676.631 587.268 676.173 586.371C675.715 585.475 675.486 584.298 675.486 582.843V519.17C675.486 509.435 676.536 501.427 678.636 495.147C680.736 488.867 683.742 484.196 687.656 481.135C691.569 478.074 696.388 476.544 702.11 476.544C705.548 476.544 708.426 477.018 710.742 477.965C713.058 478.912 714.978 480.437 716.502 482.54C718.026 484.643 719.153 487.503 719.882 491.12C720.61 494.737 720.975 499.194 720.975 504.491V591.995H752.949V498.169C752.949 487.363 751.712 478.297 749.238 470.972C746.765 463.646 743.229 457.89 738.63 453.704C734.031 449.518 728.575 446.57 722.262 444.859C715.948 443.149 709.025 442.294 701.491 442.294C691.554 442.294 682.634 444.426 674.731 448.691C666.828 452.956 660.622 458.909 656.113 466.551H655.134C655.415 461.892 655.652 457.092 655.845 452.151C656.039 447.21 656.136 442.409 656.136 437.75V373.729H624.162V486.132C624.162 495.306 623.066 502.872 620.873 508.829C618.68 514.786 615.592 519.191 611.609 522.042C607.626 524.894 602.76 526.32 597.011 526.32C591.543 526.32 586.893 524.753 583.06 521.619C579.227 518.486 577.311 514.026 577.311 508.24C577.311 498.506 581.507 491.288 589.9 486.585C598.294 481.883 611.134 479.532 628.421 479.532H657.113V534.401C657.113 546.866 654.187 556.177 648.335 562.333C642.483 568.49 635.163 571.568 626.374 571.568C619.966 571.568 614.538 569.921 610.089 566.628C605.64 563.334 602.688 558.413 601.233 551.864L570.821 559.024C573.139 568.199 577.124 575.831 582.777 581.92C588.429 588.009 595.318 592.535 603.444 595.498C611.57 598.462 621.043 599.943 631.863 599.943C641.518 599.943 650.188 598.111 657.873 594.446C665.558 590.781 671.704 585.378 676.313 578.237H677.292C677.292 580.62 677.398 583.003 677.61 585.386C677.821 587.768 678.091 590.151 678.42 592.533H708.422C708.092 590.151 707.823 587.745 707.611 585.316C707.399 582.887 707.293 580.481 707.293 578.099V553.295C707.293 544.872 708.025 537.254 709.489 530.439C710.953 523.625 713.083 517.948 715.877 513.41C718.671 508.872 722.1 505.448 726.164 503.139C730.227 500.83 734.888 499.676 740.145 499.676C748.57 499.676 754.613 502.619 758.272 508.505C761.932 514.391 763.761 522.856 763.761 533.9V591.995H795.736V528.042C795.736 517.236 794.475 508.123 791.954 500.703C789.433 493.283 785.828 487.407 781.14 483.077C776.452 478.746 770.828 475.661 764.269 473.82C757.71 471.98 750.498 471.059 742.633 471.059C733.256 471.059 724.863 473.003 717.456 476.89C710.048 480.777 704.088 486.413 699.575 493.797H698.595C697.925 486.942 694.997 481.417 689.812 477.222C684.627 473.026 677.556 470.929 668.601 470.929C659.225 470.929 650.717 473.026 643.079 477.222C635.44 481.417 629.783 487.151 626.108 494.423H625.128C624.835 490.068 624.599 486.042 624.422 482.344C624.245 478.646 624.156 475.119 624.156 471.765V410.661H592.181V471.765C592.181 475.259 592.299 478.869 592.534 482.594C592.769 486.32 593.063 489.905 593.415 493.349H621.067C620.715 489.905 620.421 486.32 620.186 482.594C619.951 478.869 619.834 475.259 619.834 471.765V514.412C619.834 524.426 621.225 532.808 624.009 539.557C626.792 546.306 630.575 551.362 635.358 554.722C640.14 558.083 645.679 559.763 651.975 559.763C658.272 559.763 663.658 558.057 668.133 554.644C672.609 551.231 675.964 546.201 678.197 539.557H679.177C682.616 550.083 688.659 558.034 697.306 563.409C705.953 568.785 717.853 571.473 733.004 571.473C745.227 571.473 755.176 569.133 762.848 564.454C770.521 559.774 775.918 553.319 779.041 545.09H780.021C779.751 548.458 779.527 551.952 779.351 555.571C779.174 559.19 779.086 562.809 779.086 566.428V591.995H810.064V410.661H778.089V471.765C778.089 475.119 778 478.646 777.823 482.344C777.647 486.042 777.41 490.068 777.117 494.423H776.137C772.463 487.151 766.894 481.417 759.428 477.222C751.962 473.026 743.59 470.929 734.313 470.929C726.311 470.929 719.21 472.466 713.01 475.538C706.811 478.611 701.664 483.133 697.569 489.103C693.474 495.074 690.742 502.353 689.371 510.941H688.392C685.231 498.896 679.633 489.503 671.601 482.761C663.569 476.019 652.868 472.648 639.497 472.648C627.274 472.648 616.699 475.235 607.771 480.41C598.844 485.584 592.535 492.845 588.845 502.194H587.865C587.395 497.254 586.983 492.67 586.63 488.44C586.278 484.211 586.101 479.924 586.101 475.58V470.929H555.123C555.123 474.843 555.211 478.703 555.387 482.511C555.564 486.32 555.828 490.068 556.181 493.757H528.529C528.882 490.068 529.117 486.32 529.234 482.511C529.352 478.703 529.41 474.843 529.41 470.929V410.661H497.435V471.765C497.435 475.119 497.346 478.646 497.17 482.344C496.993 486.042 496.757 490.068 496.464 494.423H495.484C493.343 489.203 490.36 484.706 486.534 480.932C482.708 477.158 478.117 474.283 472.76 472.305C467.404 470.328 461.336 469.339 454.557 469.339C442.888 469.339 432.637 472.214 423.804 477.964C414.971 483.714 408.227 492.219 403.573 503.477C398.918 514.736 396.591 528.394 396.591 544.452C396.591 561.07 399.036 575.066 403.925 586.44C408.815 597.813 415.911 606.397 425.212 612.192C434.514 617.986 445.927 620.884 459.456 620.884C467.735 620.884 475.184 619.598 481.804 617.025C488.424 614.453 494.024 610.767 498.602 605.967C503.179 601.167 506.617 595.475 508.917 588.889H509.896C509.896 592.243 510.014 595.563 510.249 598.849C510.484 602.135 510.778 605.4 511.13 608.644H542.108C541.756 605.4 541.462 602.135 541.227 598.849C540.991 595.563 540.874 592.243 540.874 588.889V470.929H509.896V508.647C509.896 520.762 510.337 531.475 511.218 540.786C512.1 550.098 513.594 558.06 515.7 564.672C517.807 571.284 520.526 576.602 523.858 580.626C527.191 584.651 531.182 587.503 535.832 589.182C540.482 590.862 545.842 591.702 551.912 591.702C557.798 591.702 562.859 590.876 567.096 589.224C571.334 587.572 574.788 585.217 577.46 582.16C580.131 579.103 582.064 575.529 583.257 571.438C584.45 567.347 584.973 562.809 584.827 557.825C583.377 558.246 581.893 558.554 580.377 558.749C578.86 558.944 577.343 559.042 575.826 559.042C566.45 559.042 559.442 556.389 554.803 551.083C550.164 545.777 547.845 537.744 547.845 526.985V492.586H586.101V470.929H547.845V423.904H515.87V470.929H494.318V492.586H515.87V527.804C515.87 536.721 514.914 544.313 513.003 550.582C511.091 556.851 508.226 561.811 504.406 565.463C500.585 569.114 495.807 570.939 490.071 570.939C485.597 570.939 482.011 569.959 479.312 567.999C476.613 566.039 474.616 562.857 473.323 558.45C472.03 554.044 471.15 548.167 470.685 540.82C470.219 533.473 469.986 524.405 469.986 513.615V470.929H439.008V496.88C439.008 507.547 439.331 517.405 439.977 526.457C440.623 535.51 441.597 543.597 442.9 550.719C444.203 557.84 445.842 564.037 447.815 569.308C449.788 574.579 452.136 578.956 454.857 582.437C457.578 585.919 460.711 588.55 464.254 590.329C467.797 592.109 471.788 593 476.227 593C485.702 593 493.263 589.933 498.907 583.8C504.552 577.667 508.009 569.045 509.28 557.934H510.26C512.095 567.909 516.55 576.129 523.624 582.593C530.698 589.058 539.619 592.29 550.388 592.29C558.19 592.29 565.169 590.805 571.323 587.836C577.477 584.866 582.358 580.681 585.966 575.28C589.573 569.878 591.504 563.563 591.758 556.335C591.084 556.475 590.471 556.545 589.917 556.545C584.879 556.545 582.358 553.935 582.358 548.715C582.358 546.896 582.799 544.992 583.682 543.003C584.564 541.015 585.711 539.112 587.123 537.293L634.028 481.376V470.929H555.123V496.88H592.777L554.52 541.434C550.511 546.375 547.514 551.29 545.53 556.18C543.546 561.07 542.554 565.797 542.554 570.362C542.554 578.516 545.194 584.866 550.476 589.413C555.757 593.959 563.388 596.232 573.37 596.232C583.998 596.232 592.777 592.758 599.706 585.808C606.635 578.858 610.992 568.45 612.778 554.582L602.264 550.581C600.855 559.639 598.194 566.372 594.281 570.779C590.368 575.187 585.401 577.39 579.38 577.39C574.988 577.39 571.521 576.312 568.977 574.155C566.433 571.999 565.161 568.547 565.161 563.8C565.161 560.516 565.969 557.231 567.584 553.947C569.2 550.663 571.374 547.47 574.108 544.368L624.156 485.451V470.929H586.101C586.171 469.67 586.277 468.438 586.418 467.233C586.559 466.028 586.736 464.834 586.948 463.653H586.101V463.66H612.027Z" fill="white"/>
  <defs>
    <linearGradient id="paint0_linear_1_2" x1="308.35" y1="300.731" x2="308.35" y2="552.731" gradientUnits="userSpaceOnUse">
      <stop stop-color="#D0FF4F"/>
      <stop offset="1" stop-color="#82C91E"/>
    </linearGradient>
  </defs>
</svg>
